<svg id="Layer_1" data-name="Layer 1" xmlns="http://www.w3.org/2000/svg" viewBox="0 0 40 47">
    <defs>
        <style>.cls-3{fill:#756C66;}</style>
    </defs>
    <path class="cls-3" d="M24,12.32l-.61-.61a3.61,3.61,0,0,0,0-5.12L24,6A4.48,4.48,0,0,1,24,12.32Z"/>
    <path class="cls-3" d="M27.36,14.9l-.61-.61A7.27,7.27,0,0,0,26.75,4l.61-.61a8.14,8.14,0,0,1,0,11.5Z"/>
    <path  class="cls-3" d="M30.59,17.37,30,16.76A10.74,10.74,0,0,0,30,1.54l.61-.61a11.61,11.61,0,0,1,0,16.44Z"/>
    <path  class="cls-3" d="M16,12.32A4.48,4.48,0,0,1,16,6l.61.61a3.61,3.61,0,0,0,0,5.12Z"/>
    <path class="cls-3" d="M12.64,14.9a8.14,8.14,0,0,1,0-11.5l.61.61a7.28,7.28,0,0,0,0,10.28Z"/>
    <path class="cls-3"  d="M9.41,17.37A11.61,11.61,0,0,1,9.41.93l.61.61a10.74,10.74,0,0,0,0,15.22Z"/>
    <polygon class="cls-3"
            points="10.63 41.5 10.32 40.7 18.98 37.4 12.52 34.05 12.55 33.27 19.06 30.68 14.34 27.9 14.37 27.14 19.24 24.69 16.02 22.15 16.06 21.45 19.32 19.42 17.35 17.63 17.93 16.99 20.32 19.16 20.26 19.85 17.04 21.86 20.3 24.43 20.23 25.15 15.46 27.56 20.25 30.39 20.19 31.16 13.75 33.72 20.23 37.07 20.19 37.86 10.63 41.5"/>
    <path class="cls-3" d="M20.22,46.07h-.37l-9.56-4.58L10.06,41,19.62,9.26h.83L30,41l-.23.52ZM11,40.87l9,4.33,9-4.33-9-30Z"/>
    <polygon class="cls-3"
            points="29.44 41.5 19.88 37.86 19.84 37.07 26.32 33.72 19.88 31.16 19.82 30.39 24.61 27.56 19.84 25.15 19.77 24.43 23.03 21.86 19.81 19.85 19.74 19.16 22.13 16.99 22.71 17.63 20.75 19.42 24.01 21.45 24.05 22.15 20.83 24.69 25.7 27.14 25.72 27.9 21.01 30.68 27.51 33.27 27.55 34.05 21.09 37.4 29.75 40.7 29.44 41.5"/>
    <rect class="cls-3" x="19.6" y="9.8" width="0.86" height="35.69"/>
    <circle class="cls-3" cx="20.03" cy="9.15" r="1.45"/>
</svg>