<svg id="Layer_1" data-name="Layer 1" xmlns="http://www.w3.org/2000/svg" viewBox="0 0 40 47">
    <defs>
        <style>.cls-3{fill:#756C66;}</style>
    </defs>
    <path class="cls-3" d="M36.32,1.72A.8.8,0,0,0,35.59,1H5a.79.79,0,0,0-.72.75L.51,31.13a1,1,0,0,0,.17.71.67.67,0,0,0,.55.31h14l-2.63,8.68H8.35a.82.82,0,0,0-.74.88v3.45a.83.83,0,0,0,.74.89H33.08a.83.83,0,0,0,.74-.89V41.71a.82.82,0,0,0-.74-.88H27.55l-2.63-8.68H38.77a.82.82,0,0,0,.73-.88.92.92,0,0,0,0-.29ZM3.75,17.54H9.29L8.8,23.08H3Zm.94-7.31H9.94l-.5,5.54H4Zm31.66,5.54H31l-.37-5.54h5.15Zm-6.85,0H24.17l-.12-5.54h5.08Zm-11.78,0L18,10.23h4.62l.12,5.54Zm5,1.77.12,5.54H17.39l.25-5.54ZM24,8.46l-.13-5.71v0h4.77s0,.08,0,.12L29,8.46Zm-1.47,0H18l.25-5.64s0-.07,0-.1h4.15a.24.24,0,0,0,0,.08ZM16.82,2.73l-.25,5.73h-5l.5-5.59a.77.77,0,0,0,0-.15h4.77Zm-.33,7.5-.24,5.54H10.92l.49-5.54Zm-5.72,7.31h5.4l-.25,5.54H10.27Zm5.07,7.3-.24,5.55h-6l.49-5.55Zm1.48,0H22.9L23,30.39h-6Zm7.05,0H30.1l.37,5.55h-6Zm0-1.76-.12-5.54h5.4L30,23.08Zm6.76-5.54h5.45l.59,5.54H31.46Zm4.47-9.08H30.49L30.1,2.72H35ZM5.65,2.72H10.6l-.51,5.74H4.91ZM2.81,24.84H8.64l-.49,5.55H2.09ZM32.35,44.28H9.08V42.6H32.35ZM14.19,40.83l2.62-8.68h6.55L26,40.83ZM31.94,30.39l-.37-5.55h5.75l.59,5.55Z"/>
</svg>