<svg id="Layer_1" data-name="Layer 1" xmlns="http://www.w3.org/2000/svg" viewBox="0 0 40 47">
    <defs>
        <style>.cls-1{fill:#756C66;}</style>
    </defs>
    <path class="cls-1" d="M29.32,32h-.39a.65.65,0,0,0,0,1.29h.39a.65.65,0,0,0,0-1.29Z"/>
    <path class="cls-1" d="M31.53,32h.4a.65.65,0,0,1,0,1.29h-.4a.65.65,0,0,1,0-1.29Z"/>
    <path class="cls-1" d="M34.14,32h.39a.65.65,0,0,1,0,1.29h-.39a.65.65,0,0,1,0-1.29Z"/>
    <path class="cls-1"
          d="M39.37,31.78A3.8,3.8,0,0,1,35.7,35.7H26.18A6.86,6.86,0,0,0,27,38.21h1.24a.65.65,0,0,1,0,1.29H18.6a.65.65,0,0,1,0-1.29h1.23a6.5,6.5,0,0,0,.81-2.51H13.83v1.24a2,2,0,0,1-2,2.1H2.59a2,2,0,0,1-2-2.1V13.51a2,2,0,0,1,2-2.1H7.45A3.81,3.81,0,0,1,11.12,7.5H35.7a3.8,3.8,0,0,1,3.67,3.92Zm-28.25-23a2.56,2.56,0,0,0-2.46,2.63V29.57h29.5V11.42A2.55,2.55,0,0,0,35.7,8.79Zm.74,29a.78.78,0,0,0,.75-.81V35.7H11.12a3.81,3.81,0,0,1-3.67-3.92V20H3.9a.65.65,0,0,1,0-1.3H7.45V16.82H3.9a.63.63,0,0,1-.6-.65.62.62,0,0,1,.6-.64H7.45V12.7H2.59a.78.78,0,0,0-.75.81V36.94a.78.78,0,0,0,.75.81Zm10-2a8,8,0,0,1-.65,2.51h4.39A8.31,8.31,0,0,1,25,35.7ZM8.66,31.78a2.56,2.56,0,0,0,2.46,2.63H35.7a2.55,2.55,0,0,0,2.46-2.63v-.92H8.66Z"/>
</svg>